<svg width="117" height="123" viewBox="0 0 117 123" fill="none" xmlns="http://www.w3.org/2000/svg">
<path d="M88.833 60.0745C90.6511 60.0745 92.125 61.5483 92.125 63.3664C92.125 65.1845 90.6511 66.6584 88.833 66.6584L64.3784 66.6584C62.5603 66.6584 61.0864 65.1845 61.0864 63.3664C61.0864 61.5483 62.5603 60.0745 64.3784 60.0745L88.833 60.0745Z" fill="#2A2C2B"/>
<path d="M59.6172 118.86C59.6172 120.678 61.0911 122.152 62.9092 122.152C64.7273 122.152 66.2011 120.678 66.2011 118.86L66.2011 39.3934C66.2011 37.1081 63.9298 35.5181 61.7825 36.3002C60.4824 36.7738 59.6172 38.0097 59.6172 39.3934L59.6172 118.86Z" fill="#2A2C2B"/>
<path d="M44.625 40.794C44.625 38.9753 46.0993 37.5009 47.918 37.5009C49.7367 37.5009 51.211 38.9753 51.211 40.794V103.81C51.211 105.628 49.7367 107.103 47.918 107.103C46.0993 107.103 44.625 105.628 44.625 103.81V40.794Z" fill="#2A2C2B"/>
<path d="M94.8053 34.209C96.6234 34.209 98.0973 35.6829 98.0973 37.501C98.0973 39.3191 96.6234 40.7929 94.8053 40.7929L21.3297 40.7929C19.0759 40.7929 17.4886 38.5791 18.2118 36.4445C18.6646 35.1082 19.9187 34.209 21.3297 34.209L94.8053 34.209Z" fill="#2A2C2B"/>
<path fill-rule="evenodd" clip-rule="evenodd" d="M93.0656 40.7942C105.206 41.1631 116.109 31.3243 116.109 20.3356C116.109 9.34695 106.162 0.429417 93.8573 0.34864V6.0588C102.609 6.0588 109.703 12.3835 109.703 20.1853C109.703 27.9872 101.817 34.2089 93.0656 34.2089L93.0656 40.7942Z" fill="#2A2C2B"/>
<path d="M0.890625 54.1959C0.890625 65.1846 10.6645 74.0962 21.965 74.177L22.0533 68.0692C14.0161 68.0692 6.7736 61.8475 6.7736 54.0456C6.7736 46.2438 13.289 40.8082 21.3262 40.8082V34.209C10.0257 34.2897 0.890625 43.2073 0.890625 54.1959Z" fill="#2A2C2B"/>
<path d="M63.9082 119.8H66.2596V117.449H66.2577C66.2075 118.724 65.183 119.748 63.9082 119.798V119.8Z" fill="#2A2C2B"/>
<path fill-rule="evenodd" clip-rule="evenodd" d="M94.0073 0.348663C94.0072 0.348663 94.0072 0.348663 94.0072 0.348663C92.4489 0.348663 91.1855 1.62694 91.1855 3.20378C91.1855 4.78061 92.4489 6.05889 94.0072 6.05889C94.0072 6.05889 94.0072 6.05889 94.0073 6.05889V0.348663Z" fill="#2A2C2B"/>
<path fill-rule="evenodd" clip-rule="evenodd" d="M20.97 68.2979C21.3304 68.1478 21.7257 68.065 22.1403 68.065C23.8254 68.065 25.1914 69.4332 25.1914 71.121C25.1914 72.8088 23.8254 74.177 22.1403 74.177C21.7257 74.177 21.3304 74.0942 20.97 73.9441V68.2979Z" fill="#2A2C2B"/>
</svg>
